<?xml version="1.0" standalone="no"?>
<!DOCTYPE svg PUBLIC "-//W3C//DTD SVG 20010904//EN"
 "http://www.w3.org/TR/2001/REC-SVG-20010904/DTD/svg10.dtd">
<svg version="1.0" xmlns="http://www.w3.org/2000/svg"
 width="664.000000pt" height="664.000000pt" viewBox="0 0 664.000000 664.000000"
 preserveAspectRatio="xMidYMid meet">
<metadata>
Created by potrace 1.14, written by Peter Selinger 2001-2017
</metadata>
<g transform="translate(0.000000,664.000000) scale(0.100000,-0.100000)"
fill="#000000" stroke="none">
<path d="M280 6637 c0 -2 18 -206 40 -453 22 -247 69 -784 105 -1194 35 -410
99 -1132 140 -1605 41 -473 104 -1195 140 -1605 91 -1037 96 -1094 103 -1102
4 -3 167 -49 362 -102 195 -52 481 -128 635 -170 154 -41 558 -149 898 -240
l618 -166 427 115 c419 112 1852 496 2005 537 43 11 80 26 83 32 2 6 31 319
64 696 105 1205 190 2173 230 2635 22 248 76 864 120 1370 44 506 87 993 95
1083 8 89 15 165 15 167 0 3 -1368 5 -3040 5 -1672 0 -3040 -1 -3040 -3z
m3401 -1652 c189 -159 349 -295 358 -301 16 -12 38 55 -355 -1053 -107 -300
-192 -546 -191 -547 1 -1 229 270 505 602 l504 604 396 -2 397 -3 -1 -55 c-1
-30 -9 -138 -18 -240 -9 -102 -27 -306 -40 -453 -13 -147 -25 -270 -27 -272
-2 -2 -370 -115 -817 -252 l-812 -248 795 -3 795 -2 -6 -53 c-3 -28 -18 -195
-33 -370 -15 -174 -31 -321 -37 -326 -5 -5 -195 -59 -423 -120 l-415 -111 -25
23 c-84 77 -758 674 -767 679 -6 5 -9 -3 -7 -20 2 -23 31 -352 77 -891 l12
-143 -26 -10 c-14 -5 -63 -19 -110 -30 l-85 -20 -110 30 -110 29 3 64 c1 35
21 270 43 523 22 252 39 465 37 472 -2 9 -169 -133 -402 -341 -219 -195 -402
-355 -406 -355 -9 0 -834 220 -836 223 -2 2 -65 717 -64 730 0 4 363 7 807 7
455 0 803 4 798 9 -6 4 -377 120 -825 256 -448 137 -818 251 -822 254 -6 6
-88 915 -88 979 l0 32 395 0 395 0 507 -609 c280 -335 509 -608 511 -606 3 2
-192 555 -483 1374 -42 118 -74 220 -73 227 4 19 710 614 725 611 6 -1 165
-132 354 -292z"/>
</g>
</svg>
